# File created by Blade
# Date/Time:  Thu Sep 25 17:43:48 2014
# Frame Rate: 120.000 fps
#------------------------------------------------------
:FULLY-SPECIFIED
:DEGREES
310
root -33.165848 32.258429 -4.694239 -350.148348 1.970048 1.884981
Spine -2.075929 12.960800 7.479855
Head -7.232478 36.731951 -4.035941
LeftShoulder -13.269556 23.327155 3.243137
LeftArm 21.908597 34.749505 -75.651412
LeftForeArm -1.032601 -0.000000 18.407454
LeftHand -22.094262 0.000000 -6.690229
LeftHandThumb1 -26.253704 0.000000 33.147579
RightShoulder -15.580363 7.145416 -24.118239
RightArm -17.033842 -48.338162 100.953682
RightForeArm -6.615079 -0.000000 34.681246
RightHand -1.190392 -0.000000 17.445806
RightHandThumb1 -24.326973 -0.000000 -32.862282
LeftUpLeg -10.696464 1.005977 16.617155
LeftLeg 8.034083 -0.000000 -0.000000
LeftFoot -7.620303 22.771382 341.085007
LeftToeBase -4.874092 -0.000000 0.000000
RightUpLeg -5.668174 -25.013450 -6.698265
RightLeg 1.194801 -0.000000 -0.000000
RightFoot -7.664201 -9.400185 6.601069
RightToeBase 6.530420 -0.000000 -0.000000
311
root -32.947033 32.212211 -4.708074 -350.228210 1.806660 1.588906
Spine -2.071581 12.949359 7.591962
Head -7.205197 36.952218 -3.833777
LeftShoulder -13.280008 23.323325 3.479008
LeftArm 22.429646 35.296950 -74.879545
LeftForeArm 0.422816 -0.000000 18.698916
LeftHand -22.123733 -0.000000 -6.661242
LeftHandThumb1 -26.253704 0.000000 33.147579
RightShoulder -15.548981 7.129360 -24.044436
RightArm -17.123466 -48.463228 101.027244
RightForeArm -6.966269 -0.000000 34.731694
RightHand -1.133793 -0.000000 17.209409
RightHandThumb1 -24.326973 -0.000000 -32.862282
LeftUpLeg -10.418042 1.035746 16.934391
LeftLeg 8.051324 -0.000000 -0.000000
LeftFoot -7.054859 22.293634 341.612998
LeftToeBase -5.084347 -0.000000 0.000000
RightUpLeg -5.609304 -24.836598 -6.856579
RightLeg 1.145414 -0.000000 -0.000000
RightFoot -7.502262 -9.329616 6.881083
RightToeBase 6.476661 -0.000000 -0.000000
312
root -32.708271 32.164988 -4.724176 -350.288229 1.610907 1.364374
Spine -2.078746 12.959694 7.634207
Head -7.219848 37.165836 -3.683134
LeftShoulder -13.363857 23.378756 3.652643
LeftArm 22.981621 35.578405 -74.145479
LeftForeArm 1.706233 -0.000000 18.975480
LeftHand -22.052728 -0.000000 -7.044200
LeftHandThumb1 -26.253704 0.000000 33.147579
RightShoulder -15.523832 7.120191 -24.000030
RightArm -17.144553 -48.437940 101.016534
RightForeArm -7.376938 -0.000000 34.686485
RightHand -1.108914 -0.000000 16.818333
RightHandThumb1 -24.326973 -0.000000 -32.862282
LeftUpLeg -10.158425 0.986223 17.116450
LeftLeg 8.089630 -0.000000 -0.000000
LeftFoot -6.598558 21.661803 341.312891
LeftToeBase -5.610997 -0.000000 0.000000
RightUpLeg -5.574673 -24.610725 -7.126281
RightLeg 1.098236 -0.000000 -0.000000
RightFoot -7.300041 -9.275503 7.163992
RightToeBase 6.516517 -0.000000 -0.000000
313
root -32.454349 32.118690 -4.746965 -350.312653 1.433373 1.204980
Spine -2.112415 12.957257 7.603968
Head -7.243423 37.368512 -3.520754
LeftShoulder -13.419423 23.452953 3.821898
LeftArm 23.490156 35.820168 -73.440237
LeftForeArm 3.119289 -0.000000 19.287434
LeftHand -22.026602 0.000000 -7.174150
LeftHandThumb1 -26.253704 0.000000 33.147579
RightShoulder -15.467022 7.113565 -23.925390
RightArm -17.093056 -48.234176 100.832360
RightForeArm -7.822063 -0.000000 34.651880
RightHand -1.101216 0.000000 16.469601
RightHandThumb1 -24.326973 -0.000000 -32.862282
LeftUpLeg -9.988889 0.815607 17.157972
LeftLeg 8.259603 -0.000000 -0.000000
LeftFoot -6.467238 21.084753 340.550311
LeftToeBase -5.427615 -0.000000 0.000000
RightUpLeg -5.624926 -24.452145 -7.463388
RightLeg 1.126942 -0.000000 -0.000000
RightFoot -7.128168 -9.093948 7.642512
RightToeBase 6.506162 -0.000000 -0.000000
314
root -32.186015 32.068874 -4.766920 -350.330072 1.214561 1.061958
Spine -2.164268 13.020408 7.579353
Head -7.227369 37.489920 -3.330180
LeftShoulder -13.525489 23.579331 3.948805
LeftArm 24.084130 36.060849 -72.682911
LeftForeArm 4.095174 -0.000000 19.539734
LeftHand -21.909429 -0.000000 -7.187987
LeftHandThumb1 -26.253704 0.000000 33.147579
RightShoulder -15.422556 7.117935 -23.918537
RightArm -17.069200 -47.905092 100.636853
RightForeArm -8.200723 -0.000000 34.601553
RightHand -1.122665 -0.000000 16.264613
RightHandThumb1 -24.326973 -0.000000 -32.862282
LeftUpLeg -9.809136 0.645076 17.145885
LeftLeg 8.398921 -0.000000 -0.000000
LeftFoot -6.736196 20.252325 338.666341
LeftToeBase -4.290965 -0.000000 0.000000
RightUpLeg -5.684431 -24.203720 -7.862637
RightLeg 1.172269 -0.000000 -0.000000
RightFoot -6.898658 -8.964308 7.747993
RightToeBase 6.478677 -0.000000 -0.000000
315
root -31.918002 32.017750 -4.791476 -350.337215 1.027878 0.869860
Spine -2.222085 13.084815 7.595156
Head -7.238224 37.618321 -3.138157
LeftShoulder -13.552681 23.613589 4.133881
LeftArm 24.496501 36.175913 -72.105466
LeftForeArm 4.988053 -0.000000 19.729419
LeftHand -21.709107 -0.000000 -7.213302
LeftHandThumb1 -26.253704 0.000000 33.147579
RightShoulder -15.428218 7.058684 -23.881371
RightArm -16.889392 -47.706936 100.226288
RightForeArm -8.372954 -0.000000 34.548155
RightHand -1.052471 -0.000000 15.968825
RightHandThumb1 -24.326973 -0.000000 -32.862282
LeftUpLeg -9.699783 0.378722 17.209799
LeftLeg 8.556236 -0.000000 -0.000000
LeftFoot -8.281526 18.958509 333.936182
LeftToeBase -0.925733 -0.000000 0.000000
RightUpLeg -5.790292 -24.025464 -8.186303
RightLeg 1.250921 -0.000000 -0.000000
RightFoot -6.650782 -8.847322 8.035065
RightToeBase 6.519120 -0.000000 -0.000000
316
root -31.640535 31.964200 -4.817545 -350.349990 0.909676 0.705825
Spine -2.275358 13.124510 7.589595
Head -7.254368 37.597793 -2.933150
LeftShoulder -13.575299 23.618890 4.320412
LeftArm 24.898138 36.277617 -71.532595
LeftForeArm 5.610677 0.000000 19.898175
LeftHand -21.882523 -0.000000 -6.987327
LeftHandThumb1 -26.253704 0.000000 33.147579
RightShoulder -15.429646 7.110556 -23.883569
RightArm -16.818622 -47.080853 99.849234
RightForeArm -8.720513 -0.000000 34.430439
RightHand -1.081051 -0.000000 16.085740
RightHandThumb1 -24.326973 -0.000000 -32.862282
LeftUpLeg -9.626085 0.030034 17.161623
LeftLeg 8.696419 -0.000000 -0.000000
LeftFoot -9.800839 17.964546 329.744739
LeftToeBase 1.719561 -0.000000 -0.000000
RightUpLeg -5.894147 -23.928579 -8.529403
RightLeg 1.343114 -0.000000 -0.000000
RightFoot -6.443270 -8.838946 8.423900
RightToeBase 6.499667 -0.000000 -0.000000
317
root -31.388405 31.908238 -4.857450 -350.328974 1.263805 0.582614
Spine -2.382518 12.671725 7.476245
Head -7.352988 37.670003 -2.576382
LeftShoulder -13.510256 23.478628 4.622777
LeftArm 24.789094 35.743514 -71.387162
LeftForeArm 6.485133 -0.000000 20.127096
LeftHand -21.206366 0.000000 -7.348025
LeftHandThumb1 -26.253704 0.000000 33.147579
RightShoulder -15.395235 7.150605 -23.774486
RightArm -16.567377 -46.388867 99.383485
RightForeArm -9.023901 -0.000000 34.204166
RightHand -1.154130 -0.000000 16.074403
RightHandThumb1 -24.326973 -0.000000 -32.862282
LeftUpLeg -9.886661 -0.465215 17.132840
LeftLeg 8.860934 -0.000000 -0.000000
LeftFoot -10.920449 17.170579 326.919073
LeftToeBase 3.402606 -0.000000 -0.000000
RightUpLeg -5.920798 -24.381320 -8.799652
RightLeg 1.397302 -0.000000 -0.000000
RightFoot -6.285921 -8.794325 8.609138
RightToeBase 6.617382 -0.000000 -0.000000
318
root -31.108147 31.850853 -4.890757 -350.376090 1.486836 0.498763
Spine -2.388961 12.394668 7.370165
Head -7.434892 37.636366 -2.216404
LeftShoulder -13.441097 23.266325 4.851363
LeftArm 24.635381 35.149777 -71.245394
LeftForeArm 6.733350 -0.000000 20.327028
LeftHand -20.778861 -0.000000 -7.792750
LeftHandThumb1 -26.253704 0.000000 33.147579
RightShoulder -15.455335 7.141900 -23.667128
RightArm -16.229847 -45.992488 98.704256
RightForeArm -9.206412 -0.000000 34.021284
RightHand -1.216360 -0.000000 16.265889
RightHandThumb1 -24.326973 -0.000000 -32.862282
LeftUpLeg -10.009825 -0.878368 16.952439
LeftLeg 8.914344 -0.000000 -0.000000
LeftFoot -12.238614 16.715600 324.953917
LeftToeBase 5.185865 -0.000000 -0.000000
RightUpLeg -5.936481 -24.752378 -9.214092
RightLeg 1.552513 -0.000000 -0.000000
RightFoot -5.988930 -8.986806 8.623346
RightToeBase 6.472957 -0.000000 -0.000000
319
root -30.800694 31.791347 -4.923009 -350.451750 1.593022 0.460491
Spine -2.332838 12.294637 7.274325
Head -7.541235 37.539906 -1.982597
LeftShoulder -13.282399 23.093442 5.116956
LeftArm 24.423287 34.077512 -71.398499
LeftForeArm 6.820954 -0.000000 20.364431
LeftHand -20.268228 -0.000000 -9.020546
LeftHandThumb1 -26.253704 0.000000 33.147579
RightShoulder -15.564269 7.130883 -23.696359
RightArm -15.906640 -45.437778 98.063433
RightForeArm -9.756017 -0.000000 33.720433
RightHand -1.170956 0.000000 16.306238
RightHandThumb1 -24.326973 -0.000000 -32.862282
LeftUpLeg -10.081680 -1.226777 16.593826
LeftLeg 9.073898 -0.000000 -0.000000
LeftFoot -13.763882 16.149375 323.823126
LeftToeBase 5.103753 -0.000000 -0.000000
RightUpLeg -6.032695 -25.167263 -9.735517
RightLeg 1.885984 -0.000000 -0.000000
RightFoot -5.744336 -8.720984 8.913616
RightToeBase 6.267024 -0.000000 -0.000000
320
root -30.488988 31.729869 -4.958488 -350.512439 1.773121 0.447913
Spine -2.297333 12.136780 7.126442
Head -7.639088 37.385114 -1.619049
LeftShoulder -13.175207 22.951616 5.412500
LeftArm 24.472682 33.224189 -71.266673
LeftForeArm 6.605174 -0.000000 20.268817
LeftHand -19.912010 -0.000000 -10.478624
LeftHandThumb1 -26.253704 0.000000 33.147579
RightShoulder -15.697688 7.089299 -23.682837
RightArm -15.476125 -44.956095 97.253300
RightForeArm -10.332837 -0.000000 33.444166
RightHand -1.264853 -0.000000 16.474877
RightHandThumb1 -24.326973 -0.000000 -32.862282
LeftUpLeg -10.250854 -1.480115 16.167695
LeftLeg 9.407650 -0.000000 -0.000000
LeftFoot -15.018514 15.391023 323.952796
LeftToeBase 5.642903 -0.000000 -0.000000
RightUpLeg -6.063885 -25.444777 -10.296381
RightLeg 2.106093 -0.000000 -0.000000
RightFoot -5.523062 -8.583598 9.416243
RightToeBase 6.186400 -0.000000 -0.000000
321
root -30.165631 31.667840 -4.989854 -350.621050 1.969371 0.510501
Spine -2.184257 11.890842 6.921157
Head -7.805055 37.243351 -1.312832
LeftShoulder -13.066405 22.625144 5.736989
LeftArm 24.342530 32.521050 -71.043942
LeftForeArm 5.992522 -0.000000 20.215112
LeftHand -19.416162 -0.000000 -11.945583
LeftHandThumb1 -26.253704 0.000000 33.147579
RightShoulder -15.769710 7.130877 -23.713804
RightArm -15.113020 -44.416738 96.471689
RightForeArm -11.286340 0.000000 33.146439
RightHand -1.265645 -0.000000 16.514573
RightHandThumb1 -24.326973 -0.000000 -32.862282
LeftUpLeg -10.372938 -1.792979 15.631915
LeftLeg 9.798162 -0.000000 -0.000000
LeftFoot -16.311304 14.576958 324.226960
LeftToeBase 6.514613 -0.000000 -0.000000
RightUpLeg -6.045403 -25.756873 -10.976856
RightLeg 2.377024 -0.000000 -0.000000
RightFoot -5.325137 -8.484461 9.889433
RightToeBase 6.206163 -0.000000 -0.000000
322
root -29.838247 31.610873 -5.034981 -350.666019 2.209543 0.605190
Spine -2.132910 11.670452 6.627596
Head -7.938386 37.101764 -0.866693
LeftShoulder -12.893588 22.436704 6.128072
LeftArm 24.486672 31.868033 -70.649260
LeftForeArm 5.344586 -0.000000 20.068742
LeftHand -19.076122 -0.000000 -13.047385
LeftHandThumb1 -26.253704 0.000000 33.147579
RightShoulder -15.860358 7.257926 -23.670371
RightArm -14.819999 -43.954058 95.702809
RightForeArm -12.427192 -0.000000 32.713733
RightHand -0.834521 -0.000000 17.181091
RightHandThumb1 -24.326973 -0.000000 -32.862282
LeftUpLeg -10.700803 -2.038294 15.050286
LeftLeg 10.437735 -0.000000 -0.000000
LeftFoot -17.498353 13.867555 324.818844
LeftToeBase 6.513637 -0.000000 -0.000000
RightUpLeg -6.172047 -26.270579 -11.633605
RightLeg 2.761304 -0.000000 -0.000000
RightFoot -5.058086 -8.338958 10.258286
RightToeBase 6.262779 -0.000000 -0.000000
